<?xml version="1.0" encoding="UTF-8"?>
<svg id="Layer_1" data-name="Layer 1" xmlns="http://www.w3.org/2000/svg" version="1.1" viewBox="0 0 100 100">
  <defs>
    <style>
      .cls-1 {
        fill: #fff;
        stroke-width: 0px;
      }
    </style>
  </defs>
  <path class="cls-1" d="M88.07,28.26c-3.23-2.83-7.57-4.25-13-4.25h-28.66l-9.92,43.18-10-43.18H9.79v54.92h10.69v-37.15c0-1.07-.01-2.56-.04-4.49-.03-1.92-.04-3.41-.04-4.45l10.33,46.09h11.15l10.41-46.09c0,1.04-.01,2.53-.04,4.45-.03,1.92-.04,3.42-.04,4.49v37.15h10.69v-19.75h11.41c5.97,0,10.56-1.34,13.77-4.02s4.82-7.27,4.82-13.75c0-5.94-1.62-10.32-4.85-13.15ZM79.34,47.74c-1.45,1.32-3.49,1.97-6.11,1.97h-10.32v-16.17h10.32c2.62,0,4.65.61,6.11,1.83,1.45,1.22,2.18,3.25,2.18,6.11s-.73,4.94-2.18,6.26Z"/>
</svg>